<svg width="1792" height="1792" xmlns="http://www.w3.org/2000/svg">

 <g>
  <title>background</title>
  <rect fill="none" id="canvas_background" height="402" width="582" y="-1" x="-1"/>
 </g>
 <g>
  <title>Layer 1</title>
  <path fill="#ffd400" id="svg_1" d="m1728,647q0,22 -26,48l-363,354l86,500q1,7 1,20q0,21 -10.5,35.5t-30.5,14.5q-19,0 -40,-12l-449,-236l-449,236q-22,12 -40,12q-21,0 -31.5,-14.5t-10.5,-35.5q0,-6 2,-20l86,-500l-364,-354q-25,-27 -25,-48q0,-37 56,-46l502,-73l225,-455q19,-41 49,-41t49,41l225,455l502,73q56,9 56,46z"/>
 </g>
</svg>